<?xml version="1.0" ?><svg enable-background="new 0 0 32 32" id="Glyph" version="1.1" viewBox="0 0 32 32" xml:space="preserve" xmlns="http://www.w3.org/2000/svg" xmlns:xlink="http://www.w3.org/1999/xlink"><path d="M29.707,29.707c-0.391,0.391-1.023,0.391-1.414,0l-26-26c-0.391-0.391-0.391-1.023,0-1.414  s1.023-0.391,1.414,0l7.458,7.458l3.089-6.629C14.58,2.43,15.249,2,16,2s1.42,0.43,1.747,1.122l3.29,6.984l7.309,1.095  c0.72,0.11,1.313,0.615,1.549,1.319c0.241,0.723,0.063,1.507-0.465,2.046l-5.323,5.436l0.527,3.218l5.073,5.073  C30.098,28.684,30.098,29.316,29.707,29.707z" id="XMLID_332_"/><path d="M6.464,10.773c0.036-0.006,0.073,0.007,0.099,0.033l18.298,18.298c0.069,0.069,0.076,0.187,0.01,0.259  c-0.618,0.683-1.572,0.818-2.336,0.398l-6.581-3.624l-6.489,3.624c-0.644,0.354-1.418,0.312-2.02-0.114  c-0.626-0.441-0.937-1.192-0.811-1.959l1.257-7.676L2.57,14.566c-0.528-0.539-0.706-1.323-0.465-2.046  c0.235-0.704,0.829-1.209,1.549-1.319L6.464,10.773z" id="XMLID_334_"/></svg>